<svg width="24" height="28" viewBox="0 0 24 28" fill="none" xmlns="http://www.w3.org/2000/svg">
<path d="M4.91309 20.7297C4.91309 21.4152 5.47266 21.9748 6.16113 21.9748H7.58789V25.5021C7.58789 26.3957 8.30566 27.1252 9.1875 27.1252C10.0723 27.1252 10.7871 26.3986 10.7871 25.5021V21.9719H13.2773V25.4992C13.2773 26.3928 13.9951 27.1223 14.877 27.1223C15.7617 27.1223 16.4766 26.3957 16.4766 25.4992V21.9719H17.9033C18.5918 21.9719 19.1514 21.4123 19.1514 20.7268V9.14863H4.91309V20.7297ZM15.375 3.14863L16.6904 1.24433C16.7666 1.133 16.749 0.98359 16.6465 0.910348C16.5439 0.840035 16.3975 0.875192 16.3213 0.98652L14.9561 2.96699C14.0566 2.6125 13.0547 2.41621 12.0029 2.41621C10.9512 2.41621 9.94922 2.6125 9.0498 2.96699L7.68457 0.98945C7.6084 0.878121 7.46191 0.840036 7.35937 0.913278C7.25684 0.98359 7.23926 1.13007 7.31543 1.24726L8.63086 3.15156C6.53906 4.12422 5.07422 5.96699 4.88672 8.12031H19.125C18.9316 5.96406 17.4639 4.12129 15.375 3.14863ZM8.99707 6.15156C8.8412 6.15156 8.68883 6.10534 8.55923 6.01874C8.42963 5.93215 8.32862 5.80906 8.26897 5.66506C8.20932 5.52106 8.19372 5.3626 8.22413 5.20972C8.25454 5.05685 8.32959 4.91643 8.43981 4.80621C8.55002 4.696 8.69045 4.62094 8.84332 4.59053C8.9962 4.56012 9.15465 4.57573 9.29866 4.63538C9.44266 4.69502 9.56574 4.79604 9.65234 4.92564C9.73894 5.05524 9.78516 5.2076 9.78516 5.36347C9.78461 5.57232 9.70141 5.77246 9.55373 5.92014C9.40606 6.06781 9.20592 6.15102 8.99707 6.15156ZM15.1025 6.15156C14.9467 6.15156 14.7943 6.10534 14.6647 6.01874C14.5351 5.93215 14.4341 5.80906 14.3744 5.66506C14.3148 5.52106 14.2992 5.3626 14.3296 5.20972C14.36 5.05685 14.4351 4.91643 14.5453 4.80621C14.6555 4.696 14.7959 4.62094 14.9488 4.59053C15.1017 4.56012 15.2601 4.57573 15.4041 4.63538C15.5481 4.69502 15.6712 4.79604 15.7578 4.92564C15.8444 5.05524 15.8906 5.2076 15.8906 5.36347C15.8901 5.57232 15.8069 5.77246 15.6592 5.92014C15.5115 6.06781 15.3114 6.15102 15.1025 6.15156ZM21.6475 9.10175C20.7627 9.10175 20.0478 9.82832 20.0478 10.7248V17.0646C20.0478 17.9582 20.7656 18.6877 21.6475 18.6877C22.5322 18.6877 23.2471 17.9611 23.2471 17.0646V10.7219C23.25 9.82539 22.5352 9.10175 21.6475 9.10175ZM2.35254 9.10175C1.46777 9.10175 0.75293 9.82832 0.75293 10.7248V17.0646C0.75293 17.9582 1.4707 18.6877 2.35254 18.6877C3.2373 18.6877 3.95215 17.9611 3.95215 17.0646V10.7219C3.95215 9.82539 3.23437 9.10175 2.35254 9.10175Z" fill="#1D1E22"/>
</svg>
